<mxfile host="app.diagrams.net" modified="2023-06-08T23:13:01.132Z" agent="Mozilla/5.0 (Macintosh; Intel Mac OS X 10_15_7) AppleWebKit/605.1.15 (KHTML, like Gecko) Version/16.2 Safari/605.1.15" etag="urGBfm5TDIfx73JzXG7O" version="21.3.7" type="device">
  <diagram name="Page-1" id="e3jOkEjRESEQlZspWdfL">
    <mxGraphModel dx="1893" dy="771" grid="1" gridSize="10" guides="1" tooltips="1" connect="1" arrows="1" fold="1" page="1" pageScale="1" pageWidth="827" pageHeight="1169" math="0" shadow="0">
      <root>
        <mxCell id="0" />
        <mxCell id="1" parent="0" />
        <mxCell id="mDJ8vdHU_MhSzB9FgwtN-29" style="edgeStyle=orthogonalEdgeStyle;rounded=0;orthogonalLoop=1;jettySize=auto;html=1;" edge="1" parent="1" source="mDJ8vdHU_MhSzB9FgwtN-1" target="mDJ8vdHU_MhSzB9FgwtN-2">
          <mxGeometry relative="1" as="geometry" />
        </mxCell>
        <mxCell id="mDJ8vdHU_MhSzB9FgwtN-45" style="edgeStyle=orthogonalEdgeStyle;rounded=0;orthogonalLoop=1;jettySize=auto;html=1;" edge="1" parent="1" source="mDJ8vdHU_MhSzB9FgwtN-1" target="mDJ8vdHU_MhSzB9FgwtN-3">
          <mxGeometry relative="1" as="geometry" />
        </mxCell>
        <mxCell id="mDJ8vdHU_MhSzB9FgwtN-1" value="Get Recipes&amp;nbsp;" style="outlineConnect=0;dashed=0;verticalLabelPosition=bottom;verticalAlign=top;align=center;html=1;shape=mxgraph.aws3.lambda_function;fillColor=#F58534;gradientColor=none;" vertex="1" parent="1">
          <mxGeometry x="171" y="338.5" width="69" height="72" as="geometry" />
        </mxCell>
        <mxCell id="mDJ8vdHU_MhSzB9FgwtN-24" value="" style="edgeStyle=orthogonalEdgeStyle;rounded=0;orthogonalLoop=1;jettySize=auto;html=1;" edge="1" parent="1" source="mDJ8vdHU_MhSzB9FgwtN-2" target="mDJ8vdHU_MhSzB9FgwtN-7">
          <mxGeometry relative="1" as="geometry" />
        </mxCell>
        <mxCell id="mDJ8vdHU_MhSzB9FgwtN-2" value="Kendra Chat Bot&amp;nbsp;" style="sketch=0;points=[[0,0,0],[0.25,0,0],[0.5,0,0],[0.75,0,0],[1,0,0],[0,1,0],[0.25,1,0],[0.5,1,0],[0.75,1,0],[1,1,0],[0,0.25,0],[0,0.5,0],[0,0.75,0],[1,0.25,0],[1,0.5,0],[1,0.75,0]];outlineConnect=0;fontColor=#232F3E;gradientColor=#4AB29A;gradientDirection=north;fillColor=#116D5B;strokeColor=#ffffff;dashed=0;verticalLabelPosition=bottom;verticalAlign=top;align=center;html=1;fontSize=12;fontStyle=0;aspect=fixed;shape=mxgraph.aws4.resourceIcon;resIcon=mxgraph.aws4.kendra;" vertex="1" parent="1">
          <mxGeometry x="480" y="335.5" width="78" height="78" as="geometry" />
        </mxCell>
        <mxCell id="mDJ8vdHU_MhSzB9FgwtN-35" style="edgeStyle=orthogonalEdgeStyle;rounded=0;orthogonalLoop=1;jettySize=auto;html=1;" edge="1" parent="1" source="mDJ8vdHU_MhSzB9FgwtN-3" target="mDJ8vdHU_MhSzB9FgwtN-1">
          <mxGeometry relative="1" as="geometry" />
        </mxCell>
        <mxCell id="mDJ8vdHU_MhSzB9FgwtN-3" value="Fridge Items&amp;nbsp;&lt;br&gt;" style="sketch=0;points=[[0,0,0],[0.25,0,0],[0.5,0,0],[0.75,0,0],[1,0,0],[0,1,0],[0.25,1,0],[0.5,1,0],[0.75,1,0],[1,1,0],[0,0.25,0],[0,0.5,0],[0,0.75,0],[1,0.25,0],[1,0.5,0],[1,0.75,0]];outlineConnect=0;fontColor=#232F3E;gradientColor=#4D72F3;gradientDirection=north;fillColor=#3334B9;strokeColor=#ffffff;dashed=0;verticalLabelPosition=bottom;verticalAlign=top;align=center;html=1;fontSize=12;fontStyle=0;aspect=fixed;shape=mxgraph.aws4.resourceIcon;resIcon=mxgraph.aws4.dynamodb;" vertex="1" parent="1">
          <mxGeometry x="166.5" y="180" width="78" height="78" as="geometry" />
        </mxCell>
        <mxCell id="mDJ8vdHU_MhSzB9FgwtN-37" value="" style="edgeStyle=orthogonalEdgeStyle;rounded=0;orthogonalLoop=1;jettySize=auto;html=1;" edge="1" parent="1" source="mDJ8vdHU_MhSzB9FgwtN-4" target="mDJ8vdHU_MhSzB9FgwtN-5">
          <mxGeometry relative="1" as="geometry" />
        </mxCell>
        <mxCell id="mDJ8vdHU_MhSzB9FgwtN-4" value="" style="dashed=0;outlineConnect=0;html=1;align=center;labelPosition=center;verticalLabelPosition=bottom;verticalAlign=top;shape=mxgraph.webicons.apple;fillColor=#807E7E;gradientColor=#1B1C1C" vertex="1" parent="1">
          <mxGeometry x="-260" y="323.3" width="102.4" height="102.4" as="geometry" />
        </mxCell>
        <mxCell id="mDJ8vdHU_MhSzB9FgwtN-14" style="edgeStyle=orthogonalEdgeStyle;rounded=0;orthogonalLoop=1;jettySize=auto;html=1;entryX=0;entryY=0.5;entryDx=0;entryDy=0;entryPerimeter=0;" edge="1" parent="1" source="mDJ8vdHU_MhSzB9FgwtN-5" target="mDJ8vdHU_MhSzB9FgwtN-8">
          <mxGeometry relative="1" as="geometry">
            <Array as="points">
              <mxPoint x="-12" y="526" />
            </Array>
          </mxGeometry>
        </mxCell>
        <mxCell id="mDJ8vdHU_MhSzB9FgwtN-17" value="" style="edgeStyle=orthogonalEdgeStyle;rounded=0;orthogonalLoop=1;jettySize=auto;html=1;" edge="1" parent="1" source="mDJ8vdHU_MhSzB9FgwtN-5" target="mDJ8vdHU_MhSzB9FgwtN-1">
          <mxGeometry relative="1" as="geometry" />
        </mxCell>
        <mxCell id="mDJ8vdHU_MhSzB9FgwtN-38" value="" style="edgeStyle=orthogonalEdgeStyle;rounded=0;orthogonalLoop=1;jettySize=auto;html=1;" edge="1" parent="1" source="mDJ8vdHU_MhSzB9FgwtN-5" target="mDJ8vdHU_MhSzB9FgwtN-19">
          <mxGeometry relative="1" as="geometry" />
        </mxCell>
        <mxCell id="mDJ8vdHU_MhSzB9FgwtN-5" value="" style="outlineConnect=0;dashed=0;verticalLabelPosition=bottom;verticalAlign=top;align=center;html=1;shape=mxgraph.aws3.api_gateway;fillColor=#D9A741;gradientColor=none;" vertex="1" parent="1">
          <mxGeometry x="-50" y="328" width="76.5" height="93" as="geometry" />
        </mxCell>
        <mxCell id="mDJ8vdHU_MhSzB9FgwtN-25" style="edgeStyle=orthogonalEdgeStyle;rounded=0;orthogonalLoop=1;jettySize=auto;html=1;entryX=0.5;entryY=1;entryDx=0;entryDy=0;entryPerimeter=0;" edge="1" parent="1" source="mDJ8vdHU_MhSzB9FgwtN-7" target="mDJ8vdHU_MhSzB9FgwtN-2">
          <mxGeometry relative="1" as="geometry" />
        </mxCell>
        <mxCell id="mDJ8vdHU_MhSzB9FgwtN-7" value="&lt;font color=&quot;#000000&quot;&gt;Recepies&amp;nbsp;&lt;/font&gt;" style="sketch=0;outlineConnect=0;fontColor=#232F3E;gradientColor=none;fillColor=#3F8624;strokeColor=none;dashed=0;verticalLabelPosition=bottom;verticalAlign=top;align=center;html=1;fontSize=12;fontStyle=0;aspect=fixed;pointerEvents=1;shape=mxgraph.aws4.bucket_with_objects;" vertex="1" parent="1">
          <mxGeometry x="481.5" y="487" width="75" height="78" as="geometry" />
        </mxCell>
        <mxCell id="mDJ8vdHU_MhSzB9FgwtN-23" value="" style="edgeStyle=orthogonalEdgeStyle;rounded=0;orthogonalLoop=1;jettySize=auto;html=1;" edge="1" parent="1" source="mDJ8vdHU_MhSzB9FgwtN-8" target="mDJ8vdHU_MhSzB9FgwtN-13">
          <mxGeometry relative="1" as="geometry" />
        </mxCell>
        <mxCell id="mDJ8vdHU_MhSzB9FgwtN-8" value="Update Recipes" style="outlineConnect=0;dashed=0;verticalLabelPosition=bottom;verticalAlign=top;align=center;html=1;shape=mxgraph.aws3.lambda_function;fillColor=#F58534;gradientColor=none;" vertex="1" parent="1">
          <mxGeometry x="120" y="490" width="69" height="72" as="geometry" />
        </mxCell>
        <mxCell id="mDJ8vdHU_MhSzB9FgwtN-21" style="edgeStyle=orthogonalEdgeStyle;rounded=0;orthogonalLoop=1;jettySize=auto;html=1;" edge="1" parent="1" source="mDJ8vdHU_MhSzB9FgwtN-13" target="mDJ8vdHU_MhSzB9FgwtN-7">
          <mxGeometry relative="1" as="geometry" />
        </mxCell>
        <mxCell id="mDJ8vdHU_MhSzB9FgwtN-13" value="Text Scrawler" style="outlineConnect=0;dashed=0;verticalLabelPosition=bottom;verticalAlign=top;align=center;html=1;shape=mxgraph.aws3.lambda_function;fillColor=#F58534;gradientColor=none;" vertex="1" parent="1">
          <mxGeometry x="262" y="490" width="69" height="72" as="geometry" />
        </mxCell>
        <mxCell id="mDJ8vdHU_MhSzB9FgwtN-15" value="addRecepie/&lt;br&gt;{url}" style="text;html=1;align=center;verticalAlign=middle;resizable=0;points=[];autosize=1;strokeColor=none;fillColor=none;" vertex="1" parent="1">
          <mxGeometry x="-20" y="530" width="90" height="40" as="geometry" />
        </mxCell>
        <mxCell id="mDJ8vdHU_MhSzB9FgwtN-18" value="getRecipes/&lt;br&gt;{ingredient list}" style="text;html=1;align=center;verticalAlign=middle;resizable=0;points=[];autosize=1;strokeColor=none;fillColor=none;" vertex="1" parent="1">
          <mxGeometry x="20" y="381" width="100" height="40" as="geometry" />
        </mxCell>
        <mxCell id="mDJ8vdHU_MhSzB9FgwtN-39" value="" style="edgeStyle=orthogonalEdgeStyle;rounded=0;orthogonalLoop=1;jettySize=auto;html=1;" edge="1" parent="1" source="mDJ8vdHU_MhSzB9FgwtN-19" target="mDJ8vdHU_MhSzB9FgwtN-3">
          <mxGeometry relative="1" as="geometry" />
        </mxCell>
        <mxCell id="mDJ8vdHU_MhSzB9FgwtN-19" value="Add / Remove Items" style="outlineConnect=0;dashed=0;verticalLabelPosition=bottom;verticalAlign=top;align=center;html=1;shape=mxgraph.aws3.lambda_function;fillColor=#F58534;gradientColor=none;" vertex="1" parent="1">
          <mxGeometry x="-46.25" y="183" width="69" height="72" as="geometry" />
        </mxCell>
        <mxCell id="mDJ8vdHU_MhSzB9FgwtN-20" value="Apple Shortcuts&amp;nbsp;" style="text;html=1;align=center;verticalAlign=middle;resizable=0;points=[];autosize=1;strokeColor=none;fillColor=none;" vertex="1" parent="1">
          <mxGeometry x="-267.6" y="425.7" width="110" height="30" as="geometry" />
        </mxCell>
        <mxCell id="mDJ8vdHU_MhSzB9FgwtN-22" value="Fill Recipe Bucket&amp;nbsp;" style="text;html=1;align=center;verticalAlign=middle;resizable=0;points=[];autosize=1;strokeColor=none;fillColor=none;" vertex="1" parent="1">
          <mxGeometry x="211" y="672" width="120" height="30" as="geometry" />
        </mxCell>
        <mxCell id="mDJ8vdHU_MhSzB9FgwtN-27" value="Ask for Recipe" style="text;html=1;align=center;verticalAlign=middle;resizable=0;points=[];autosize=1;strokeColor=none;fillColor=none;" vertex="1" parent="1">
          <mxGeometry x="270" y="351" width="100" height="30" as="geometry" />
        </mxCell>
        <mxCell id="mDJ8vdHU_MhSzB9FgwtN-28" value="Return Recipe and cooking instructions" style="text;html=1;align=center;verticalAlign=middle;resizable=0;points=[];autosize=1;strokeColor=none;fillColor=none;" vertex="1" parent="1">
          <mxGeometry x="240" y="368.5" width="230" height="30" as="geometry" />
        </mxCell>
        <mxCell id="mDJ8vdHU_MhSzB9FgwtN-31" value="Items have expiry dates&lt;br&gt;There are different type of Items" style="text;html=1;align=center;verticalAlign=middle;resizable=0;points=[];autosize=1;strokeColor=none;fillColor=none;" vertex="1" parent="1">
          <mxGeometry x="240" y="130" width="190" height="40" as="geometry" />
        </mxCell>
        <mxCell id="mDJ8vdHU_MhSzB9FgwtN-34" value="Validate Items" style="text;html=1;align=center;verticalAlign=middle;resizable=0;points=[];autosize=1;strokeColor=none;fillColor=none;" vertex="1" parent="1">
          <mxGeometry x="196" y="293.3" width="100" height="30" as="geometry" />
        </mxCell>
        <mxCell id="mDJ8vdHU_MhSzB9FgwtN-36" value="or text box with self made recipe" style="text;html=1;align=center;verticalAlign=middle;resizable=0;points=[];autosize=1;strokeColor=none;fillColor=none;" vertex="1" parent="1">
          <mxGeometry x="-80" y="565" width="200" height="30" as="geometry" />
        </mxCell>
        <mxCell id="mDJ8vdHU_MhSzB9FgwtN-41" value="Image Recognition" style="outlineConnect=0;dashed=0;verticalLabelPosition=bottom;verticalAlign=top;align=center;html=1;shape=mxgraph.aws3.lambda_function;fillColor=#F58534;gradientColor=none;" vertex="1" parent="1">
          <mxGeometry x="70" y="183" width="69" height="72" as="geometry" />
        </mxCell>
        <mxCell id="mDJ8vdHU_MhSzB9FgwtN-46" value="Maybe not this but another nlp solution?&amp;nbsp;" style="text;html=1;align=center;verticalAlign=middle;resizable=0;points=[];autosize=1;strokeColor=none;fillColor=none;" vertex="1" parent="1">
          <mxGeometry x="558" y="359.5" width="240" height="30" as="geometry" />
        </mxCell>
      </root>
    </mxGraphModel>
  </diagram>
</mxfile>
